<svg xmlns="http://www.w3.org/2000/svg" width="39.032" height="39.032" viewBox="0 0 39.032 39.032"><path d="M19.516,0A19.516,19.516,0,1,1,0,19.516,19.516,19.516,0,0,1,19.516,0Z" fill="#262525"/><path d="M1058.451,3831.426a5.967,5.967,0,0,0,4.367-1.227,2.991,2.991,0,0,1-2.757-2.064,2.93,2.93,0,0,0,1.317-.05,2.99,2.99,0,0,1-1.7-1.051,2.944,2.944,0,0,1-.658-1.9,3.074,3.074,0,0,0,.644.263,2.943,2.943,0,0,0,.695.1,2.981,2.981,0,0,1-.916-3.955,8.481,8.481,0,0,0,6.115,3.1c-.016-.1-.033-.181-.045-.267a2.966,2.966,0,0,1,1.625-3.076,2.888,2.888,0,0,1,1.395-.3,2.928,2.928,0,0,1,1.861.724c.069.058.131.125.2.184a.073.073,0,0,0,.054.017,5.883,5.883,0,0,0,1.792-.677l.041-.022.017,0a3.028,3.028,0,0,1-1.283,1.626,6.209,6.209,0,0,0,1.675-.446c-.054.076-.106.153-.162.228a5.907,5.907,0,0,1-1.278,1.268.058.058,0,0,0-.031.056,7.514,7.514,0,0,1-.018,1,8.554,8.554,0,0,1-.419,2.031,8.82,8.82,0,0,1-1.091,2.2,8.386,8.386,0,0,1-1.3,1.488,7.94,7.94,0,0,1-1.811,1.23,8.093,8.093,0,0,1-2.194.712,9.117,9.117,0,0,1-1.929.13,8.411,8.411,0,0,1-4.174-1.3Z" transform="translate(-1046.154 -3807.364)" fill="#fff"/></svg>