<svg xmlns="http://www.w3.org/2000/svg" width="39.032" height="39.032" viewBox="0 0 39.032 39.032"><path d="M19.516,0A19.516,19.516,0,1,1,0,19.516,19.516,19.516,0,0,1,19.516,0Z" fill="#262525"/><path d="M996.941,3824.024l-.342,2.99h-2.3v6.743h-3v-6.734h-2.242v-3h2.242v-.07c0-.569,0-1.138,0-1.707a3.939,3.939,0,0,1,.277-1.5,3,3,0,0,1,1.948-1.781,4.235,4.235,0,0,1,1.439-.189c.457.013.913.033,1.369.055.175.009.349.03.526.046v2.381H996.8c-.507,0-1.015,0-1.521.01a1.7,1.7,0,0,0-.419.071.674.674,0,0,0-.511.584,3.693,3.693,0,0,0-.042.525c-.005.507,0,1.015,0,1.522,0,.013,0,.026,0,.046Z" transform="translate(-973.899 -3806.599)" fill="#fff"/></svg>