<svg xmlns="http://www.w3.org/2000/svg" width="39.032" height="39.032" viewBox="0 0 39.032 39.032"><circle cx="19.516" cy="19.516" r="19.516" fill="#262525"/><g transform="translate(11.707 11.702)"><path d="M563.644,501.534h-6.532a4.32,4.32,0,0,1-4.316-4.316v-6.532a4.32,4.32,0,0,1,4.316-4.316h6.532a4.321,4.321,0,0,1,4.316,4.316v6.532A4.321,4.321,0,0,1,563.644,501.534Zm-6.532-13.863a3.019,3.019,0,0,0-3.016,3.016v6.532a3.019,3.019,0,0,0,3.016,3.016h6.532a3.019,3.019,0,0,0,3.016-3.016v-6.532a3.019,3.019,0,0,0-3.016-3.016Z" transform="translate(-552.797 -486.371)" fill="#fff"/><g transform="translate(3.699 3.699)"><path d="M595.187,532.644a3.882,3.882,0,1,1,3.882-3.882A3.887,3.887,0,0,1,595.187,532.644Zm0-6.465a2.583,2.583,0,1,0,2.583,2.583A2.586,2.586,0,0,0,595.187,526.179Z" transform="translate(-591.305 -524.879)" fill="#fff"/></g><g transform="translate(10.697 2.544)"><path d="M666.023,513.786a.933.933,0,1,1-.933-.933A.933.933,0,0,1,666.023,513.786Z" transform="translate(-664.157 -512.853)" fill="#fff"/></g></g></svg>